<svg xmlns="http://www.w3.org/2000/svg" width="100.321" height="100" viewBox="0 0 100.321 100">
  <g id="Groupe_1" data-name="Groupe 1" transform="translate(-9.679 -9)">
    <path id="Tracé_1" data-name="Tracé 1" d="M56.841,106.68a50,50,0,1,0-50.162-50A50.137,50.137,0,0,0,56.841,106.68Zm.329-79.312A21.873,21.873,0,0,1,79.079,49.2c0,12.063-9.809,30.946-21.909,30.946s-21.9-18.883-21.9-30.946A21.871,21.871,0,0,1,57.17,27.368ZM85.625,85.146l1.547,3.737a44.338,44.338,0,0,1-59.966.648l1.814-4.385H85.625Z" transform="translate(3 2.32)"/>
  </g>
</svg>
