<svg xmlns="http://www.w3.org/2000/svg" width="70" height="94" viewBox="0 0 70 94">
  <g id="Groupe_2" data-name="Groupe 2" transform="translate(-15 -3)">
    <g id="Groupe_1" data-name="Groupe 1" transform="translate(0 -952.362)">
      <path id="Tracé_1" data-name="Tracé 1" d="M18,955.362a3.118,3.118,0,0,0-3,3v88a3.048,3.048,0,0,0,3,3H82a3.118,3.118,0,0,0,3-3v-74a3.052,3.052,0,0,0-.875-2.094l-14-14A3.035,3.035,0,0,0,68,955.362Zm3,6H65v11a3.091,3.091,0,0,0,3,3H79v68H21Zm50,4.25,3.75,3.75H71Zm-21,10.75a6,6,0,1,0,6,6A6,6,0,0,0,50,976.362Zm0,14c-6,0-13,2-13,10H63C63,992.362,56,990.362,50,990.362Zm-20,16a3,3,0,0,0,0,6H70a3,3,0,0,0,0-6Zm0,12a3,3,0,0,0,0,6H70a3,3,0,0,0,0-6Zm0,12a3,3,0,0,0,0,6H70a3,3,0,0,0,0-6Z"/>
    </g>
  </g>
</svg>
