<svg xmlns="http://www.w3.org/2000/svg" xmlns:xlink="http://www.w3.org/1999/xlink" version="1.1" x="0px" y="0px" viewBox="0 0 95 118.75" enable-background="new 0 0 95 95" xml:space="preserve"><path d="M47.501,88.32c22.509,0,40.82-18.313,40.82-40.82c0-22.51-18.312-40.82-40.82-40.82C24.991,6.68,6.679,24.99,6.679,47.5  C6.679,70.008,24.991,88.32,47.501,88.32z M47.769,23.57c9.847,0,17.83,7.982,17.83,17.826c0,9.848-7.983,25.264-17.83,25.264  c-9.845,0-17.826-15.416-17.826-25.264C29.942,31.553,37.924,23.57,47.769,23.57z M70.926,70.74l1.259,3.051  c-6.461,6.068-15.143,9.799-24.684,9.799c-9.265,0-17.721-3.512-24.117-9.27l1.476-3.58H70.926z"/><text x="0" y="110" fill="#000000" font-size="5px" font-weight="bold" font-family="'Helvetica Neue', Helvetica, Arial-Unicode, Arial, Sans-serif">Created by Guilherme Furtado</text><text x="0" y="115" fill="#000000" font-size="5px" font-weight="bold" font-family="'Helvetica Neue', Helvetica, Arial-Unicode, Arial, Sans-serif">from the Noun Project</text></svg>