<svg xmlns:dc="http://purl.org/dc/elements/1.1/" xmlns:cc="http://creativecommons.org/ns#" xmlns:rdf="http://www.w3.org/1999/02/22-rdf-syntax-ns#" xmlns:svg="http://www.w3.org/2000/svg" xmlns="http://www.w3.org/2000/svg" xmlns:sodipodi="http://sodipodi.sourceforge.net/DTD/sodipodi-0.dtd" xmlns:inkscape="http://www.inkscape.org/namespaces/inkscape" version="1.1" x="0px" y="0px" viewBox="0 0 100 125"><g transform="translate(0,-952.36218)"><path style="text-indent:0;text-transform:none;direction:ltr;block-progression:tb;baseline-shift:baseline;color:#000000;enable-background:accumulate;" d="m 18,955.36217 c -1.5708,1.7e-4 -2.9998,1.42925 -3,3 l 0,88.00003 c 0.038,1.4134 1.141,2.9998 3,3 l 64,0 c 1.5708,-2e-4 2.9998,-1.4293 3,-3 l 0,-74.00003 c -0.01,-0.77567 -0.3274,-1.54429 -0.875,-2.09375 l -14,-14 C 69.5733,955.70231 68.7905,955.36818 68,955.36217 z m 3,6 44,0 0,11 c -0.022,1.46745 1.3169,3.00301 3,3 l 11,0 0,68.00003 -58,0 z m 50,4.25 3.75,3.75 -3.75,0 z m -21,10.75002 c -3.3137,0 -6,2.6863 -6,6 0,3.3137 2.6863,6 6,6 3.3137,0 6,-2.6863 6,-6 0,-3.3137 -2.6863,-6 -6,-6 z m 0,14 c -6,0 -13,2 -13,10.00001 l 26,0 c 0,-8.00001 -7,-10.00001 -13,-10.00001 z m -20,16.00001 c -1.6568,0 -3,1.3432 -3,3 0,1.6569 1.3432,3 3,3 l 40,0 c 1.6569,0 3,-1.3431 3,-3 0,-1.6568 -1.3431,-3 -3,-3 z m 0,12 c -1.6568,0 -3,1.3432 -3,3 0,1.6569 1.3432,3 3,3 l 40,0 c 1.6569,0 3,-1.3431 3,-3 0,-1.6568 -1.3431,-3 -3,-3 z m 0,12 c -1.6568,0 -3,1.3431 -3,3 0,1.6568 1.3432,3 3,3 l 40,0 c 1.6569,0 3,-1.3432 3,-3 0,-1.6569 -1.3431,-3 -3,-3 z" fill="#000000" fill-opacity="1" stroke="none" marker="none" visibility="visible" display="inline" overflow="visible"/></g><text x="0" y="115" fill="#000000" font-size="5px" font-weight="bold" font-family="'Helvetica Neue', Helvetica, Arial-Unicode, Arial, Sans-serif">Created by unlimicon</text><text x="0" y="120" fill="#000000" font-size="5px" font-weight="bold" font-family="'Helvetica Neue', Helvetica, Arial-Unicode, Arial, Sans-serif">from the Noun Project</text></svg>