<svg xmlns="http://www.w3.org/2000/svg" width="346.702" height="126" viewBox="0 0 346.702 126">
  <g id="Groupe_2" data-name="Groupe 2" transform="translate(-31.298)">
    <g id="Groupe_1" data-name="Groupe 1" transform="translate(-69 -54)">
      <g id="Groupe_1-2" data-name="Groupe 1" transform="translate(100.298 66)">
        <path id="Tracé_1" data-name="Tracé 1" d="M11.3,23.941V59.674c0,17.877,23.419,35.914,35,43,11.576-7.1,35-25.168,35-43V23.941a327.292,327.292,0,0,1-35-17.159A327.452,327.452,0,0,1,11.3,23.941Zm35,34.285-30-12.455,30-12.457,30,12.455Z" transform="translate(-11.298 0)"/>
        <path id="Tracé_2" data-name="Tracé 2" d="M41.435,8.04c2.284,1.051,4.388,1.969,6.239,2.747L48.771,0Z" transform="translate(17.298)"/>
        <path id="Tracé_3" data-name="Tracé 3" d="M15.229,0l1.1,10.787c1.851-.779,3.955-1.7,6.239-2.747Z" transform="translate(-11.298)"/>
        <path id="Tracé_4" data-name="Tracé 4" d="M45.256,52.811a68.179,68.179,0,0,1-5.867,4.539L46.559,64Z" transform="translate(11.684 44.202)"/>
        <path id="Tracé_5" data-name="Tracé 5" d="M17.441,64l7.17-6.651a68.179,68.179,0,0,1-5.867-4.539Z" transform="translate(-5.685 44.202)"/>
        <path id="Tracé_6" data-name="Tracé 6" d="M30.7,23.133a1.845,1.845,0,1,1-1.235.487,5.257,5.257,0,1,0,1.027-.467A2.034,2.034,0,0,1,30.7,23.133Z" transform="translate(3.008 18.673)"/>
      </g>
    </g>
    <text id="Kevin_Guillier" data-name="Kevin Guillier" transform="translate(163 35)" fill="#1d1d1d" font-size="32" font-family="SegoeUI, Segoe UI"><tspan x="0" y="0">Kevin Guillier</tspan></text>
    <line id="Ligne_1" data-name="Ligne 1" x2="184" transform="translate(163.5 54.5)" fill="none" stroke="#707070" stroke-width="3"/>
    <text id="Concepteur_Développeur" data-name="Concepteur Développeur" transform="translate(134 90)" fill="#1d1d1d" font-size="22" font-family="SegoeUI, Segoe UI"><tspan x="0" y="0">Concepteur Développeur</tspan></text>
    <text id="Chef_de_projet" data-name="Chef de projet" transform="translate(186 120)" fill="#1d1d1d" font-size="22" font-family="SegoeUI, Segoe UI"><tspan x="0" y="0">Chef de projet</tspan></text>
  </g>
</svg>
