<svg xmlns="http://www.w3.org/2000/svg" width="94.5" height="95.1" viewBox="0 0 94.5 95.1">
  <g id="Groupe_3" data-name="Groupe 3" transform="translate(-2.9 -5)">
    <g id="Groupe_2" data-name="Groupe 2" transform="translate(0 2.5)">
      <path id="Tracé_5" data-name="Tracé 5" d="M92.4,2.5H7.6A4.717,4.717,0,0,0,2.9,7.3V72.8a4.8,4.8,0,0,0,4.8,4.8H40.6v8.7H36.5a8.92,8.92,0,0,0-8.9,8.9h0A2.433,2.433,0,0,0,30,97.6H70.3a2.433,2.433,0,0,0,2.4-2.4,8.92,8.92,0,0,0-8.9-8.9H59.7V77.6H92.6a4.8,4.8,0,0,0,4.8-4.8V7.3A5.185,5.185,0,0,0,92.4,2.5ZM50,72.4a3.3,3.3,0,1,1,3.3-3.3A3.329,3.329,0,0,1,50,72.4ZM87.5,60.8h-75V12.1h75Z"/>
      <circle id="Ellipse_1" data-name="Ellipse 1" cx="7.5" cy="7.5" r="7.5" transform="translate(26.8 20.4)"/>
      <path id="Tracé_6" data-name="Tracé 6" d="M24.1,52.7a47.841,47.841,0,0,0,20.4,0,1.723,1.723,0,0,0,1.3-1.8L45,44.4a7.984,7.984,0,0,0-7.9-7H31.5a7.984,7.984,0,0,0-7.9,7l-.8,6.5A1.6,1.6,0,0,0,24.1,52.7Z"/>
      <path id="Tracé_7" data-name="Tracé 7" d="M64.3,49.3A12.8,12.8,0,1,0,51.5,36.5,12.89,12.89,0,0,0,64.3,49.3ZM60.5,31.9a.815.815,0,0,1,1.3-.7l7.4,4.6a.936.936,0,0,1,0,1.5l-7.4,4.6a.842.842,0,0,1-1.3-.7V31.9Z"/>
    </g>
  </g>
</svg>
